# xmcd
#
# Track frame offsets: 
#        187
#        12862
#        23512
#        34087
#        47325
#        55200
#        66225
#        77212
#        88312
#        99300
#        111375
#        124687
#        134550
#        147712
#        156187
#        167662
#        177300
#        188925
#        201037
#
# Disc length: 2828 seconds
#
# Revision: 0
# Processed by: cddbd v1.5.2PL0 Copyright (c) Steve Scherf et al.
# Submitted via: ExactAudioCopy v0.99pb4
#
DISCID=0a0b0a13
DTITLE=Bill Clifton - The Early Years 1957-1958
DYEAR=1957
DGENRE=Bluegrass
TTITLE0=The Girl I Left In Sunny Tennessee
TTITLE1=Dixie Darlin'
TTITLE2=You Don't Think About Me When I'm Gone
TTITLE3=I'll Be There Mary Dear
TTITLE4=Paddy on the Turnpike
TTITLE5=I'll Wander Back Someday
TTITLE6=Darlin' Corey
TTITLE7=When You Kneel At Mother's Grave
TTITLE8=Blue Ridge Mountain Blues
TTITLE9=Are You Alone
TTITLE10=Springhill Disater
TTITLE11=I'm Living the Right Life Now
TTITLE12=Lonely Heart Blues
TTITLE13=Cedar Grove
TTITLE14=You Go To Your Church
TTITLE15=Walking In My Sleep
TTITLE16=Pal of Yesterday
TTITLE17=Just Another Broken Heart
TTITLE18=Little White Washed Chimney
EXTD=
EXTT0=
EXTT1=
EXTT2=
EXTT3=
EXTT4=
EXTT5=
EXTT6=
EXTT7=
EXTT8=
EXTT9=
EXTT10=
EXTT11=
EXTT12=
EXTT13=
EXTT14=
EXTT15=
EXTT16=
EXTT17=
EXTT18=
PLAYORDER=
